<svg height="512pt" viewBox="-52 0 512 512.00104" width="512pt" xmlns="http://www.w3.org/2000/svg"><path d="m281.261719 49.578125c0 3.195313-.226563 4.433594-1.191407 12.03125l-83.117187-14.253906.378906-3c2.910157-23.082031 23.992188-39.433594 47.074219-36.511719 21.292969 2.679688 36.855469 20.820312 36.855469 41.734375zm0 0" fill="#72869e"/><path d="m280.070312 61.609375-6.890624 54.554687-57.347657-7.242187c-8.949219-11.550781-13.96875-18.019531-22.921875-29.5625l4.042969-32.003906zm0 0" fill="#eb975d"/><path d="m326.457031 502.558594-25.03125-8.066406-9.925781-19.363282 10.296875-31.941406 39.675781 12.789062zm0 0" fill="#e2e8ed"/><path d="m118.625 478.847656 16.011719 20.867188 21.574219 2.835937 27.289062-20.730469-26.546875-32.613281zm0 0" fill="#e2e8ed"/><path d="m313.574219 142.21875 33.417969-.03125-15.589844-66.605469 23.8125-5.152343 19.902344 10.324218 23.882812 98.945313h-85.425781zm0 0" fill="#eb975d"/><path d="m206.652344 130.03125 20.414062 27.988281h20l12.367188-18.757812 54.140625 2.957031v37.480469h-28.285157l-.027343 115.003906h-104.148438l-.328125-129.574219-46.800781-16.917968 13.605469-39.410157zm0 0" fill="#72869e"/><path d="m259.433594 139.261719v-24.832031l-43.597656-5.507813c-1.621094-2.089844-9.183594-11.9375-9.183594-11.9375v33.046875l20.410156 27.988281h20.003906zm0 0" fill="#eb975d"/><path d="m17.054688 61.613281-8.941407 24.734375 9.234375 19.699219 116.636719 42.164063 13.605469-39.410157zm0 0" fill="#eb975d"/><path d="m285.261719 295.703125-104.148438-1v6.222656l28.753907 105.457031-52.914063 42.824219 26.546875 32.613281 74.132812-60.101562-22.675781-83.179688h35.339844l52.527344 32.59375-21.027344 72.054688 39.675781 12.789062 31.535156-106.109374zm0 0" fill="#aefeec"/><path d="m216.953125 47.355469.378906-3c2.25-17.8125 15.320313-31.605469 31.777344-35.640625-24.820313-6.015625-48.671875 11.011718-51.777344 35.640625l-.378906 3 83.117187 14.253906.425782-3.355469zm0 0" fill="#61748b"/><path d="m235.835938 108.921875c-8.949219-11.550781-13.972657-18.019531-22.921876-29.5625l3.617188-28.644531-19.578125-3.359375-4.042969 32.003906c8.953125 11.542969 13.972656 18.011719 22.921875 29.5625l57.347657 7.242187.3125-2.484374zm0 0" fill="#b25e1e"/><path d="m321.425781 494.492188-9.921875-19.363282 8.410156-26.101562-18.117187-5.839844-10.296875 31.941406 9.925781 19.363282 25.03125 8.066406 1.882813-5.839844zm0 0" fill="#c5d1db"/><path d="m154.640625 499.714844-16.015625-20.867188 26.054688-20.148437-7.726563-9.492188-38.328125 29.640625 16.011719 20.867188 21.574219 2.835937 2.949218-2.242187zm0 0" fill="#c5d1db"/><path d="m366.996094 142.1875-15.59375-66.605469 9.699218-2.097656-5.886718-3.054687-23.8125 5.152343 15.589844 66.605469-33.417969.03125v37.480469h20.003906v-37.480469zm0 0" fill="#b25e1e"/><path d="m278.742188 140.316406-19.304688-1.054687-12.371094 18.757812h20.003906zm0 0" fill="#61748b"/><path d="m153.988281 148.210938 11.398438-33.015626-17.796875-6.394531-13.605469 39.410157 46.800781 16.914062.328125 129.578125h20.003907l-.332032-129.578125zm0 0" fill="#61748b"/><path d="m226.652344 110.285156-10.816406-1.367187c-1.617188-2.085938-9.183594-11.933594-9.183594-11.933594v33.046875l20.414062 27.988281h20l-20.414062-27.988281zm0 0" fill="#b25e1e"/><path d="m37.351562 106.046875-9.238281-19.699219 6.628907-18.339844-17.6875-6.394531-8.941407 24.734375 9.234375 19.699219 116.636719 42.164063 2.222656-6.429688zm0 0" fill="#b25e1e"/><path d="m176.953125 449.207031 52.917969-42.824219-28.753906-105.457031v-6.027343l-20.003907-.195313v6.222656l28.753907 105.457031-52.914063 42.824219 26.546875 32.613281 12.046875-9.769531zm0 0" fill="#76cbb8"/><path d="m321.796875 443.1875 21.03125-72.054688-52.527344-32.59375h-20.003906l52.527344 32.59375-21.027344 72.054688 39.675781 12.789062 1.75-5.882812zm0 0" fill="#76cbb8"/><path d="m124.484375 152.753906c3.023437 1.089844 12.140625 4.386719 14.109375 5.097656l34.703125 12.542969.035156 13.332031 15-.039062-.0625-23.835938-44.78125-16.183593c2.023438-5.855469.398438-1.148438 8.714844-25.242188l49.742187 17.882813c19.699219 27.007812 15.148438 20.765625 21.308594 29.214844h27.855469l12.222656-18.539063 42.742188 2.335937v22.882813h-28.289063l-.011718 83.828125 15 .003906.007812-68.828125h28.296875v-.007812h87.449219l-26.921875-111.527344-25.335938-13.144531-33.910156 7.335937 15.175781 64.832031-23.800781.023438-46.796875-2.558594v-9.222656l12.746094 1.609375c4.378906-34.664063 5.960937-47.21875 8.730468-69.117187l-.007812-.003907c3.238281-27.222656-16.277344-51.652343-43.058594-55.023437-26.007812-3.296875-49.191406 14.050781-54.625 38.273437l-45.066406-7.734375-2.539062 14.789063 45.492187 7.804687h.003906l-3.53125 27.964844c1.636719 2.113281 12.492188 16.109375 14.070313 18.144531v19.714844c-66.953125-24.066406-23.050782-8.230469-186.601563-67.351563l-12.550781 34.710938 11.875 25.324219zm215.957031-71.453125 13.71875-2.96875 14.46875 7.503907 20.84375 86.363281h-68.394531v-22.484375l35.371094-.035156zm-88.507812 55.710938-8.90625 13.507812h-12.148438c-.328125-.449219-16.472656-22.589843-16.726562-22.941406v-11.304687l37.78125 4.769531zm14.746094-29.226563c-14.082032-1.78125-4.554688-.574218-46.808594-5.914062-4.066406-5.28125-12.300782-16.003906-19.101563-24.855469l2.640625-20.941406c13.945313 2.390625 54.300782 9.3125 68.320313 11.714843zm-23.210938-92.5c18.496094 2.328125 31.921875 18.992188 30.132812 37.605469l-68.066406-11.671875c4.125-16.625 20.179688-28.183594 37.933594-25.933594zm-114.089844 123.285156-106.558594-38.523437-6.597656-14.070313 5.335938-14.761718 116.527344 42.125c-7.457032 21.613281-5.511719 15.976562-8.707032 25.230468zm0 0"/><path d="m292.765625 291.519531v-15.484375h-15.003906v11.171875h-89.167969l-.210938-83.519531-15 .039062c.152344 60.367188-.121093-47.195312.25 98.480469.097657 0-1.265624-4.851562 27.710938 101.421875l-49.035156 39.683594-44.183594 34.171875 22.457031 29.261719 27.710938 3.644531 23.96875-18.210937.144531.179687c7.207031-5.84375 4.507812-3.714844 11.808594-9.261719l-.152344-.1875 72.097656-58.445312-21.382812-78.425782h23.382812l45.867188 28.460938-19.402344 66.484375-11.214844 34.800781 12.757813 24.894532 35.128906 11.320312 15.015625-46.582031.164062.050781c2.59375-8.726562 1.570313-5.441406 4.4375-14.332031l-.164062-.050781 31.082031-104.582032zm-138.636719 203.191407-15.429687-2.027344-9.574219-12.476563 26.628906-20.589843c8.746094 10.746093 8.417969 10.339843 17.03125 20.921874zm177.492188-126.949219-59.183594-36.722657h-47.300781l23.976562 87.933594-64.523437 52.304688-17.070313-20.972656 50.875-41.171876-29.132812-106.847656 93.839843.902344 81.082032 50.050781-27.714844 93.246094-25.429688-8.195313zm.410156 93.054687-10.410156 32.304688-14.941406-4.816406-7.085938-13.832032 7.039062-21.84375c2.628907.847656 22.03125 7.101563 25.398438 8.1875zm0 0"/><path d="m214.90625 256.53125v-15.003906h15.003906v15.003906zm25.003906 0v-15.003906h15v15.003906zm0 0" fill="#fff"/></svg>