<svg id="Calque_1" data-name="Calque 1" xmlns="http://www.w3.org/2000/svg" viewBox="0 0 194.64 219.92"><defs><style>.cls-1{fill:#fff;}</style></defs><title>Fonkhiphop-min</title><path class="cls-1" d="M125.39,206.87c-6.52-.19-10.47-4.45-11.53-11.93a36.81,36.81,0,0,1,.56-12.43c.57-2.88-.23-4.88-2.8-6.22-.15-.08-.27-.2-.42-.27-6.16-3.18-11.41-7.73-13.91-14-2.44-6.16-7.88-6.56-12.5-8.61-2.15-1-4.91-1.11-4.92-4s2.92-2.7,4.78-3.61c5.94-2.95,12.76-1.91,19.64-4.38-4.2-3.79-6.67-8.35-9.11-13-3.45-6.59-2.36-12.38,1.47-18.3,1.89-2.91,3.78-.13,6-.79-5.18-.65-1-10.86-9.06-8,.54-9,6.83-15.21,10-22.8a55.72,55.72,0,0,0,3.12-9.43c.49-2.28,3.25-5.33-.49-7s-7.62-2.33-11.71.74C87,68.44,83.25,76.26,79.72,84.66c.81-5.42-.28-10.63-1.23-16.21,2.24.73,1.74,3.14,3.61,3.17,2-4.05,2-4.1-1.76-4.81-.73-.14-1.38-.22-1.23-1,.21-1.24.29-2.78,2-2.9,1.07-.07,2.43.83,2.81-1s-1.08-2.18-2.36-2.56a2.56,2.56,0,0,1-2.08-1.88c-.7-3,4.64-12.76,7.61-13.56,11-3,22.44-4,33.13-.26a27,27,0,0,0,12.1,1.44,9.28,9.28,0,0,1,4.33.88c2.75,1.21,5.14,2.49,8.12,0,1.89-1.58,4.6-.71,6.57.66a4.5,4.5,0,0,0,6.3-.62c5-5.24,11.91-6.94,17.9-10.31,4.23-2.39,13.48,2.17,15.28,7.28,2.43,6.88,1.63,13.82-.1,20.67-.55,2.14-1.12,4.17-.36,6.33.36,1,.57,2.25-.82,2.31-7.58.34-3.46,6.11-3.31,8.73.27,4.93,3.59,9.66.3,14.79-.61,1,.26,1.84,1.45,2s1.05-.55,1.55-1.36c3.09-5,1.89-11.35,5.51-16.46,2.47,2.72.89,5.91,1.9,9.33,1.34-2.62,2.31-4.61,3.37-6.56.37-.68.7-1.71,1.75-1.42,1.29.35,1.12,1.53.89,2.46-.67,2.63-2.79,4.86-2.43,7.85,2.35.28,2.95-1.6,4.09-2.68s2.17-2.09,3.42-.89-.43,2-1.07,2.78c-1.71,2-3.61,3.8-5.46,5.71.6,1.08,1.48.87,2.54.64,1.23-.27,3-2.28,3.64-.06.5,1.61-1.81,2.18-3.12,2.55-2.88.82-3.59,2.7-4.11,5.45-1,5.53-2.63,11-3.76,16.49a9.39,9.39,0,0,1-9.22,7.58c-7.09-.33-9.42-2.34-11-8.15-.89-3.32-2.76-6.38-4.21-9.55-.76-1.66-1.69-3.26-2.32-5s-1-3.47-1.48-5.39c-3.63,1.32-4.85,2.58-1.95,6.4a19.41,19.41,0,0,1,3.39,10.26c.3,5.87.84,11.43,5.41,16.33-4.61.88-6.67-1.69-6.85-4.56-.48-7.51-6.28-9.69-11.5-12.29-2.44-1.21-5.23-4-8.56-.74-.59.57-3-.78-4.59-1.2-5-1.32-10.08-2.58-14.86.72-1.35.93-2.67,2-2.11,4.05.4,1.49,1.45,1.62,2.65,1.66,2.73.1,3.75-.84,1.66-3.51a4.5,4.5,0,0,1,4.28,2.56c1.64,2.88,4.28,3.34,7.34,3.62a10.45,10.45,0,0,1,6.21,2.58c3,3.09,6.65,4.18,10.54,4.84,2.64.46,3.26,1.87,1.92,3.75-2.46,3.47-2.82,8.27-7,10.66-2.09,1.19-1.76,3.5-1.5,5.43,1.31,9.71-1.29,19.23-1.2,28.88,0,3.57-1.72,6.73-3.9,9.56-3.53,4.57-7.37,5.11-13.18,1.89-1.12-.62-3.38-2.52-3.33-.2.12,5.1-4,4.49-6.49,5.69-5,2.43-5.35,3.23-1.33,7.11C124.08,205.22,124.55,205.88,125.39,206.87Zm-3.21-52.36c-.48-4.29-1.51-7-5.15-8.44-9.7-3.79-19.25-1.75-28.8.5-3.1.73-.82,3.34-1.39,5-.22.62.75,1.47,1.73.77,2.75-2,5.66-.75,8.48-.38,5,.65,12.1-2.36,13.28-5.93C112.8,150.61,117.29,152.1,122.18,154.51Zm19.22,11c2.12-.16,5.15,2.37,5.72-2,.11-.87,1.31-1.83-.46-2.13C143.64,160.86,142.67,163.32,141.4,165.47Z" transform="translate(-13.85 -8.02)"/><path class="cls-1" d="M130.89,8.08A111.27,111.27,0,0,0,34,122.69c2,48.33,37.44,96.53,96.75,105.17-41.07,1.3-74.58-14.09-97.23-48.56C7.88,140.23,7.25,99,31.92,59.26,54.37,23.08,88.54,6.91,130.89,8.08Z" transform="translate(-13.85 -8.02)"/><path class="cls-1" d="M74,75c-.69,2.58-1.48,5.13,2,6.55a1.48,1.48,0,0,1,.28,2.75c-1.59,1-.86,2.3-1.2,3.47-.28.92,1.41,3.83-1.91,2.32-.1,1.49-2.07,3.59.08,4.36,3.51,1.25,2.75,3.55,2.76,6.16,0,2.81-2.36,5.64,0,8.47.1.12-.62,1.3-1.06,1.38-1.07.17-1.42-.78-1.28-1.61.47-2.63.89-5.26.15-7.89a2.5,2.5,0,0,0-1.14-1.55,1.1,1.1,0,0,0-1.38,1.06c.29,3.79-3,3.19-5.38,4.37l2.79-4.9c-2.3-.52-3.75,2.25-6.84,1.67,6.89-5.66,8.65-13.11,9.57-21a9.63,9.63,0,0,1,2.76-5.59Z" transform="translate(-13.85 -8.02)"/><path class="cls-1" d="M88.81,97.26c-2.17,1.25-3.37.43-4.53-.55a3.59,3.59,0,0,0-3.17-.89c-1,.2-1.88,2.61-3.06.57-.78-1.34.5-2.25,1.49-3.22,1.35-1.32,2.42-2,4.24-.74C85.77,93.76,85.41,97,88.81,97.26Z" transform="translate(-13.85 -8.02)"/><path class="cls-1"  d="M74.08,75.11c-.12-4.39,1.79-8.26,3.3-12.23,1.23,4.67-1,8.43-3.4,12.15Z" transform="translate(-13.85 -8.02)"/></svg>